<svg width="1280" height="640" viewBox="0 0 1280 640" xmlns="http://www.w3.org/2000/svg" role="img" aria-label="DocForge hero banner">
  <defs>
    <linearGradient id="page" x1="0" y1="0" x2="1" y2="1">
      <stop offset="0" stop-color="#0d1117"/>
      <stop offset="1" stop-color="#161b22"/>
    </linearGradient>
    <linearGradient id="bg" x1="0" y1="0" x2="0" y2="1">
      <stop offset="0" stop-color="#4c1d95"/>
      <stop offset="1" stop-color="#7c3aed"/>
    </linearGradient>
    <linearGradient id="spark" x1="0" y1="0" x2="1" y2="1">
      <stop offset="0" stop-color="#fbbf24"/>
      <stop offset="1" stop-color="#f97316"/>
    </linearGradient>
  </defs>

  <rect width="1280" height="640" fill="url(#page)"/>
  <!-- subtle grid -->
  <g stroke="#ffffff" stroke-opacity="0.04">
    <path d="M0 160 H1280 M0 320 H1280 M0 480 H1280"/>
    <path d="M320 0 V640 M640 0 V640 M960 0 V640"/>
  </g>

  <!-- mark -->
  <g transform="translate(120,196) scale(0.5)">
    <rect x="16" y="16" width="480" height="480" rx="108" fill="url(#bg)"/>
    <path d="M150 118 h150 l70 70 v206 a20 20 0 0 1 -20 20 H150 a20 20 0 0 1 -20 -20 V138 a20 20 0 0 1 20 -20 z" fill="#ffffff"/>
    <path d="M300 118 l70 70 h-56 a14 14 0 0 1 -14 -14 z" fill="#ded7f5"/>
    <rect x="168" y="212" width="150" height="18" rx="9" fill="#7c3aed"/>
    <rect x="168" y="252" width="176" height="14" rx="7" fill="#c4b5fd"/>
    <rect x="168" y="286" width="176" height="14" rx="7" fill="#c4b5fd"/>
    <rect x="168" y="320" width="120" height="14" rx="7" fill="#c4b5fd"/>
    <path d="M356 300 l22 52 52 22 -52 22 -22 52 -22 -52 -52 -22 52 -22 z" fill="url(#spark)"/>
  </g>

  <text x="470" y="286" font-family="Segoe UI, Helvetica, Arial, sans-serif" font-size="104" font-weight="800" fill="#e6edf3">Doc<tspan fill="#c4b5fd">Forge</tspan></text>
  <text x="474" y="352" font-family="Segoe UI, Helvetica, Arial, sans-serif" font-size="32" fill="#9198a1">Prompt in. Polished Markdown or HTML out.</text>
  <text x="474" y="404" font-family="Segoe UI, Helvetica, Arial, sans-serif" font-size="23" fill="#a78bfa">Uses your available AI — always falls back to templates.</text>
</svg>
