<svg width="512" height="512" viewBox="0 0 512 512" xmlns="http://www.w3.org/2000/svg" role="img" aria-label="DocForge icon">
  <defs>
    <linearGradient id="bg" x1="0" y1="0" x2="0" y2="1">
      <stop offset="0" stop-color="#4c1d95"/>
      <stop offset="1" stop-color="#7c3aed"/>
    </linearGradient>
    <linearGradient id="spark" x1="0" y1="0" x2="1" y2="1">
      <stop offset="0" stop-color="#fbbf24"/>
      <stop offset="1" stop-color="#f97316"/>
    </linearGradient>
  </defs>

  <!-- rounded badge -->
  <rect x="16" y="16" width="480" height="480" rx="108" fill="url(#bg)"/>

  <!-- document with folded corner -->
  <g>
    <path d="M150 118 h150 l70 70 v206 a20 20 0 0 1 -20 20 H150 a20 20 0 0 1 -20 -20 V138 a20 20 0 0 1 20 -20 z"
          fill="#ffffff"/>
    <path d="M300 118 l70 70 h-56 a14 14 0 0 1 -14 -14 z" fill="#ded7f5"/>
    <!-- content lines -->
    <rect x="168" y="212" width="150" height="18" rx="9" fill="#7c3aed"/>
    <rect x="168" y="252" width="176" height="14" rx="7" fill="#c4b5fd"/>
    <rect x="168" y="286" width="176" height="14" rx="7" fill="#c4b5fd"/>
    <rect x="168" y="320" width="120" height="14" rx="7" fill="#c4b5fd"/>
  </g>

  <!-- forge spark -->
  <path d="M356 300 l22 52 52 22 -52 22 -22 52 -22 -52 -52 -22 52 -22 z" fill="url(#spark)"/>
</svg>
