<svg width="720" height="180" viewBox="0 0 720 180" xmlns="http://www.w3.org/2000/svg" role="img" aria-label="DocForge logo">
  <defs>
    <linearGradient id="bg" x1="0" y1="0" x2="0" y2="1">
      <stop offset="0" stop-color="#4c1d95"/>
      <stop offset="1" stop-color="#7c3aed"/>
    </linearGradient>
    <linearGradient id="spark" x1="0" y1="0" x2="1" y2="1">
      <stop offset="0" stop-color="#fbbf24"/>
      <stop offset="1" stop-color="#f97316"/>
    </linearGradient>
  </defs>

  <!-- mark -->
  <g transform="translate(18,18) scale(0.28)">
    <rect x="16" y="16" width="480" height="480" rx="108" fill="url(#bg)"/>
    <path d="M150 118 h150 l70 70 v206 a20 20 0 0 1 -20 20 H150 a20 20 0 0 1 -20 -20 V138 a20 20 0 0 1 20 -20 z" fill="#ffffff"/>
    <path d="M300 118 l70 70 h-56 a14 14 0 0 1 -14 -14 z" fill="#ded7f5"/>
    <rect x="168" y="212" width="150" height="18" rx="9" fill="#7c3aed"/>
    <rect x="168" y="252" width="176" height="14" rx="7" fill="#c4b5fd"/>
    <rect x="168" y="286" width="176" height="14" rx="7" fill="#c4b5fd"/>
    <rect x="168" y="320" width="120" height="14" rx="7" fill="#c4b5fd"/>
    <path d="M356 300 l22 52 52 22 -52 22 -22 52 -22 -52 -52 -22 52 -22 z" fill="url(#spark)"/>
  </g>

  <!-- wordmark -->
  <text x="196" y="88" font-family="Segoe UI, Helvetica, Arial, sans-serif" font-size="72" font-weight="700" fill="#1f2328">Doc<tspan fill="#7c3aed">Forge</tspan></text>
  <text x="198" y="132" font-family="Segoe UI, Helvetica, Arial, sans-serif" font-size="26" fill="#57606a">Prompt in. Polished document out.</text>
</svg>
